<svg width="112" height="125" viewBox="0 0 112 125" fill="none" xmlns="http://www.w3.org/2000/svg">
<path d="M111.001 56C111.501 56 111.501 55.9995 111.501 55.9989L111.501 55.9965L111.501 55.988L111.501 55.9562C111.501 55.9284 111.5 55.8876 111.499 55.8342C111.498 55.7273 111.494 55.57 111.488 55.3657C111.474 54.9569 111.447 54.3598 111.393 53.6011C111.284 52.0839 111.068 49.9197 110.635 47.3241C109.77 42.1351 108.04 35.2088 104.573 28.2764C101.106 21.3421 95.8977 14.3926 88.0754 9.17772C80.2501 3.96081 69.8387 0.5 56.0012 0.5C42.1637 0.5 31.7524 3.96081 23.927 9.17772C16.1048 14.3926 10.8962 21.3421 7.42901 28.2764C3.96283 35.2088 2.23223 42.1351 1.3674 47.3241C0.934785 49.9197 0.718285 52.0839 0.609913 53.6011C0.555722 54.3598 0.528551 54.9569 0.514926 55.3657C0.508114 55.57 0.504688 55.7273 0.502964 55.8342C0.502103 55.8876 0.501667 55.9284 0.501447 55.9562L0.501251 55.988L0.501225 55.9965L0.501222 55.9989C0.501221 55.9995 0.501221 56 1.00122 56H0.501221V114L0.501221 114.037C0.501203 116.507 0.501189 118.403 0.660338 119.836C0.81988 121.273 1.14834 122.355 1.89719 123.104C2.64604 123.852 3.72744 124.181 5.16426 124.341C6.59816 124.5 8.49565 124.5 10.967 124.5H11.0012H101H101.034C103.506 124.5 105.403 124.5 106.837 124.341C108.274 124.181 109.356 123.852 110.105 123.104C110.854 122.355 111.182 121.273 111.342 119.836C111.501 118.403 111.501 116.505 111.501 114.034V114V56H111.001Z" fill="white" stroke="#FF0000"/>
<circle cx="55.5" cy="56.5" r="52.5" fill="black"/>
<path d="M24.9443 118.948C24.9603 118.924 24.9603 118.868 24.9443 118.78C24.9123 118.492 24.9083 118.292 24.9323 118.18C24.9003 117.748 24.8883 117.496 24.8963 117.424C24.9123 117.352 24.9363 117.312 24.9683 117.304C24.9363 117.256 24.9043 117.08 24.8723 116.776C24.8483 116.472 24.8443 116.268 24.8603 116.164C24.8443 116.1 24.8403 116.024 24.8483 115.936C24.8563 115.84 24.8683 115.776 24.8843 115.744C24.8683 115.728 24.8563 115.668 24.8483 115.564V115.024L24.8723 114.712V114.448L24.9443 114.076C24.9203 114.036 24.9403 113.964 25.0043 113.86C24.9243 113.692 25.0083 113.484 25.2563 113.236C25.2643 113.22 25.3563 113.168 25.5323 113.08C25.6763 113.072 25.7723 113.072 25.8203 113.08C25.8763 113.088 25.9563 113.096 26.0603 113.104C26.1723 113.112 26.2563 113.124 26.3123 113.14C26.4563 113.188 26.5283 113.316 26.5283 113.524V113.728C26.5443 114.016 26.5523 114.232 26.5523 114.376V114.64C26.5523 114.744 26.5443 114.804 26.5283 114.82C26.5363 114.852 26.5363 114.928 26.5283 115.048V115.252C26.5043 115.5 26.4963 115.644 26.5043 115.684L26.4203 116.32C26.4843 116.344 26.7123 116.356 27.1043 116.356H27.7043C28.0563 116.356 28.2763 116.356 28.3643 116.356C28.4603 116.348 28.5203 116.32 28.5443 116.272C28.5763 116.224 28.6003 116.16 28.6163 116.08C28.6323 116 28.6443 115.908 28.6523 115.804C28.6603 115.7 28.6683 115.636 28.6763 115.612C28.7243 115.572 28.7363 115.4 28.7123 115.096C28.7123 115.072 28.7283 115.012 28.7603 114.916C28.7603 114.804 28.7763 114.676 28.8083 114.532C28.8083 114.38 28.8323 114.248 28.8803 114.136C28.9363 114.016 28.9763 113.916 29.0003 113.836C29.0403 113.7 29.1363 113.584 29.2883 113.488C29.4883 113.344 29.6803 113.252 29.8643 113.212H30.0803C30.2963 113.252 30.3683 113.456 30.2963 113.824C30.2963 113.944 30.2643 114.1 30.2003 114.292C30.1283 114.668 30.0923 114.912 30.0923 115.024C30.0923 115.136 30.0603 115.34 29.9963 115.636C30.0123 115.788 30.0123 115.888 29.9963 115.936C29.9883 115.984 29.9843 116.044 29.9843 116.116C29.9683 116.292 29.9603 116.412 29.9603 116.476C29.9443 116.716 29.9363 116.908 29.9363 117.052C29.9363 117.196 29.9243 117.352 29.9003 117.52C29.9003 117.688 29.8723 117.86 29.8163 118.036L29.7803 118.804C29.7803 118.86 29.8083 119.272 29.8643 120.04C29.9123 120.088 29.9283 120.184 29.9123 120.328C29.8963 120.464 29.8683 120.56 29.8283 120.616C29.7883 120.672 29.7443 120.704 29.6963 120.712C29.6563 120.72 29.5923 120.724 29.5043 120.724C29.3203 120.828 29.1723 120.868 29.0603 120.844C28.9643 120.844 28.8643 120.812 28.7603 120.748C28.5923 120.66 28.4843 120.552 28.4363 120.424C28.4363 120.368 28.4243 120.3 28.4003 120.22C28.3843 120.14 28.3843 120.056 28.4003 119.968C28.4163 119.872 28.4203 119.772 28.4123 119.668C28.4123 119.564 28.4123 119.444 28.4123 119.308L28.4243 119.164C28.4083 119.132 28.4163 119.08 28.4483 119.008C28.4803 118.936 28.4843 118.88 28.4603 118.84V118.516L28.5203 117.904C28.4403 117.848 28.4363 117.716 28.5083 117.508L28.5323 117.412C28.4363 117.436 28.3483 117.448 28.2683 117.448C28.0443 117.504 27.7963 117.532 27.5243 117.532L26.4443 117.496V117.628C26.4283 117.756 26.4243 117.948 26.4323 118.204V118.432C26.4403 118.64 26.4443 118.936 26.4443 119.32C26.4763 119.736 26.4923 120.036 26.4923 120.22L26.4803 120.304C26.4803 120.368 26.4723 120.424 26.4563 120.472C26.4563 120.624 26.4163 120.728 26.3363 120.784C26.2643 120.84 26.1443 120.876 25.9763 120.892C25.8083 120.908 25.6563 120.864 25.5203 120.76C25.3283 120.664 25.2283 120.584 25.2203 120.52C25.2123 120.456 25.1883 120.372 25.1483 120.268C25.1083 120.204 25.0803 120.128 25.0643 120.04C25.0643 119.784 25.0603 119.64 25.0523 119.608C25.0283 119.576 25.0163 119.52 25.0163 119.44C25.0163 119.336 24.9923 119.172 24.9443 118.948ZM32.7292 118.276L32.7652 119.356C32.8932 119.812 33.0812 120.132 33.3292 120.316C33.3692 120.356 33.4612 120.4 33.6052 120.448L33.9052 120.52C33.9452 120.52 33.9892 120.504 34.0372 120.472C34.0932 120.456 34.1332 120.436 34.1572 120.412C34.2132 120.34 34.2692 120.276 34.3252 120.22C34.3812 120.164 34.4052 120.136 34.3972 120.136C34.4292 120.104 34.4412 120.052 34.4332 119.98C34.4572 119.956 34.4892 119.904 34.5292 119.824C34.6172 119.376 34.7052 119.088 34.7932 118.96C34.8252 118.608 34.8412 118.384 34.8412 118.288C34.8412 117.952 34.7532 117.54 34.5772 117.052C34.4812 116.94 34.4332 116.584 34.4332 115.984C34.3852 115.864 34.3572 115.756 34.3492 115.66C34.3412 115.556 34.3132 115.448 34.2652 115.336C34.2252 115.216 34.1932 115.136 34.1692 115.096C34.1452 115.056 34.1292 115.02 34.1212 114.988C34.1212 114.948 34.1052 114.9 34.0732 114.844C33.9452 114.652 33.7492 114.756 33.4852 115.156L33.2812 115.516C33.2812 115.532 33.2412 115.68 33.1612 115.96C33.0332 116.408 32.9692 116.66 32.9692 116.716C32.9772 116.764 32.9332 116.928 32.8372 117.208C32.8292 117.232 32.8252 117.288 32.8252 117.376C32.8332 117.464 32.8172 117.588 32.7772 117.748C32.7452 117.9 32.7292 118.076 32.7292 118.276ZM31.3612 117.4L31.4452 116.512C31.4452 116.464 31.4612 116.392 31.4932 116.296C31.5332 116.2 31.5572 116.14 31.5652 116.116C31.5652 116.1 31.5732 116.072 31.5892 116.032C31.5892 115.816 31.6492 115.628 31.7692 115.468C31.9532 115.044 32.0932 114.728 32.1892 114.52C32.2852 114.312 32.3892 114.14 32.5012 114.004C32.5092 113.964 32.5932 113.9 32.7532 113.812C33.0812 113.636 33.3892 113.548 33.6772 113.548C33.9652 113.548 34.2412 113.592 34.5052 113.68C34.5932 113.696 34.7092 113.756 34.8532 113.86C35.0052 113.964 35.0932 114.02 35.1172 114.028C35.2532 114.108 35.3932 114.28 35.5372 114.544C35.6892 114.8 35.7692 114.988 35.7772 115.108C35.7932 115.228 35.8412 115.42 35.9212 115.684C36.0092 115.94 36.0532 116.132 36.0532 116.26C36.0532 116.38 36.0732 116.564 36.1132 116.812C36.1612 117.06 36.1812 117.26 36.1732 117.412C36.1252 118.54 35.9812 119.356 35.7412 119.86C35.6932 120.212 35.6012 120.436 35.4652 120.532L35.4412 120.7C35.4332 120.796 35.3852 120.904 35.2972 121.024C35.2172 121.144 35.1132 121.236 34.9852 121.3C34.9612 121.324 34.8012 121.36 34.5052 121.408C34.0812 121.488 33.8012 121.528 33.6652 121.528C33.4892 121.584 33.2652 121.572 32.9932 121.492C32.7292 121.42 32.5772 121.38 32.5372 121.372C32.4972 121.372 32.4092 121.328 32.2732 121.24C32.1452 121.16 32.0612 121.096 32.0212 121.048C31.8932 120.952 31.8172 120.876 31.7932 120.82L31.6252 120.484C31.5212 120.38 31.4492 120.232 31.4092 120.04C31.3692 119.84 31.3292 119.712 31.2892 119.656C31.2492 119.568 31.2132 119.476 31.1812 119.38C31.1892 119.324 31.1932 119.224 31.1932 119.08V118.96C31.1612 118.84 31.1692 118.724 31.2172 118.612C31.2252 118.556 31.2292 118.488 31.2292 118.408C31.2372 118.32 31.2492 118.196 31.2652 118.036V117.88C31.3372 117.64 31.3692 117.48 31.3612 117.4ZM39.2845 115.804C39.2285 116.076 39.2005 116.312 39.2005 116.512C39.1845 116.624 39.1645 116.7 39.1405 116.74C39.1245 116.78 39.1165 116.872 39.1165 117.016C39.1165 117.16 39.1605 117.244 39.2485 117.268C39.3365 117.268 39.4645 117.22 39.6325 117.124L39.8845 116.896C39.9725 116.824 40.1765 116.692 40.4965 116.5L40.7965 116.212L40.9165 116.056L40.9645 115.948C41.0285 115.844 41.0485 115.736 41.0245 115.624L41.0005 115.42C40.9445 115.172 40.9045 115.028 40.8805 114.988C40.8645 114.94 40.8365 114.892 40.7965 114.844C40.7565 114.788 40.7125 114.74 40.6645 114.7C40.6165 114.66 40.5885 114.632 40.5805 114.616L40.2085 114.436C40.2005 114.428 40.1525 114.416 40.0645 114.4C39.9285 114.344 39.7365 114.336 39.4885 114.376L39.4165 114.76C39.4165 114.808 39.3925 114.892 39.3445 115.012C39.3045 115.132 39.2965 115.22 39.3205 115.276C39.3125 115.3 39.3085 115.348 39.3085 115.42C39.3085 115.484 39.3005 115.572 39.2845 115.684V115.804ZM39.0565 118.132C38.9925 118.164 38.9525 118.18 38.9365 118.18C38.9285 118.204 38.9245 118.248 38.9245 118.312V118.456C38.9245 118.512 38.8885 118.684 38.8165 118.972V119.092C38.8165 119.212 38.7965 119.308 38.7565 119.38L38.7085 119.908L38.6365 120.208C38.6205 120.256 38.6165 120.3 38.6245 120.34C38.6405 120.38 38.6525 120.528 38.6605 120.784C38.6765 121.032 38.6685 121.212 38.6365 121.324L38.5645 121.432C38.4045 121.48 38.3005 121.492 38.2525 121.468C38.2045 121.444 38.1245 121.428 38.0125 121.42C37.9005 121.412 37.8365 121.404 37.8205 121.396C37.8125 121.396 37.7725 121.38 37.7005 121.348C37.6365 121.324 37.5925 121.304 37.5685 121.288C37.5525 121.272 37.5245 121.248 37.4845 121.216C37.3805 121.144 37.3285 120.988 37.3285 120.748C37.3125 120.7 37.3165 120.644 37.3405 120.58C37.2925 120.556 37.2765 120.492 37.2925 120.388C37.3165 120.34 37.3285 120.264 37.3285 120.16C37.3285 120.056 37.3405 119.972 37.3645 119.908V119.716C37.3645 119.644 37.3925 119.496 37.4485 119.272C37.4485 119.208 37.4605 119.152 37.4845 119.104C37.4685 119.088 37.4885 119.02 37.5445 118.9C37.5285 118.876 37.5485 118.76 37.6045 118.552C37.5805 118.528 37.5765 118.456 37.5925 118.336C37.6085 118.208 37.6285 118.108 37.6525 118.036C37.6525 117.884 37.6645 117.792 37.6885 117.76C37.6805 117.736 37.6685 117.66 37.6525 117.532L37.6765 117.388C37.6765 117.292 37.7125 117.144 37.7845 116.944C37.8485 116.488 37.8805 116.24 37.8805 116.2C37.9925 115.736 38.0485 115.448 38.0485 115.336C38.0725 115.328 38.0965 115.252 38.1205 115.108C38.1445 114.956 38.1365 114.848 38.0965 114.784C37.7365 114.92 37.4365 115.08 37.1965 115.264C37.0365 115.4 36.9285 115.452 36.8725 115.42C36.7605 115.356 36.7045 115.264 36.7045 115.144L36.6565 114.952C36.6485 114.944 36.6285 114.9 36.5965 114.82C36.5565 114.732 36.5405 114.668 36.5485 114.628C36.5485 114.588 36.5445 114.536 36.5365 114.472C36.5205 114.4 36.5205 114.352 36.5365 114.328C36.6085 114.192 36.7045 114.092 36.8245 114.028L37.1125 113.824L37.3165 113.704C37.3325 113.704 37.4845 113.62 37.7725 113.452C37.7885 113.42 37.8485 113.392 37.9525 113.368C38.0565 113.344 38.2885 113.272 38.6485 113.152C38.8885 113.128 39.0285 113.116 39.0685 113.116C39.3245 113.084 39.5405 113.108 39.7165 113.188C39.8365 113.22 39.9045 113.236 39.9205 113.236C39.9445 113.228 39.9725 113.228 40.0045 113.236C40.0445 113.244 40.0725 113.248 40.0885 113.248C40.0885 113.264 40.1245 113.272 40.1965 113.272L40.4245 113.356C40.4645 113.356 40.5165 113.376 40.5805 113.416C40.6285 113.408 40.6925 113.428 40.7725 113.476C40.8605 113.516 40.9845 113.576 41.1445 113.656C41.3125 113.736 41.3965 113.804 41.3965 113.86C41.4445 113.876 41.4965 113.92 41.5525 113.992L41.6965 114.136L41.9245 114.436C41.9405 114.444 41.9765 114.484 42.0325 114.556C42.1125 114.692 42.1565 114.772 42.1645 114.796C42.1725 114.82 42.1805 114.844 42.1885 114.868C42.1965 114.884 42.2285 114.952 42.2845 115.072C42.3965 115.296 42.4405 115.492 42.4165 115.66C42.4165 115.668 42.3765 115.792 42.2965 116.032C42.1525 116.456 41.9325 116.792 41.6365 117.04C41.5725 117.088 41.4885 117.152 41.3845 117.232C41.2805 117.304 41.1965 117.368 41.1325 117.424C40.8285 117.608 40.6485 117.724 40.5925 117.772C40.5445 117.82 40.5005 117.86 40.4605 117.892L40.3285 117.952L40.3525 118.024C40.3525 117.992 40.3725 118.008 40.4125 118.072C40.4605 118.128 40.4925 118.172 40.5085 118.204C40.5085 118.244 40.5485 118.292 40.6285 118.348C40.6445 118.34 40.6645 118.348 40.6885 118.372C40.7365 118.42 40.7605 118.496 40.7605 118.6C40.8165 118.632 40.9005 118.728 41.0125 118.888C41.1245 118.968 41.2205 119.08 41.3005 119.224C41.3565 119.288 41.4005 119.332 41.4325 119.356C41.4645 119.404 41.5285 119.468 41.6245 119.548C41.7205 119.628 41.7845 119.684 41.8165 119.716C41.8485 119.74 41.8845 119.768 41.9245 119.8C42.0685 119.912 42.1685 119.996 42.2245 120.052L42.3685 120.148C42.6645 120.436 42.8205 120.592 42.8365 120.616C42.8285 120.672 42.7725 120.756 42.6685 120.868C42.6605 120.996 42.4765 121.104 42.1165 121.192C41.9965 121.192 41.8325 121.136 41.6245 121.024C41.4165 120.92 41.2565 120.808 41.1445 120.688C40.7925 120.432 40.5605 120.232 40.4485 120.088C40.1205 119.76 39.8845 119.444 39.7405 119.14C39.7085 119.116 39.6685 119.076 39.6205 119.02C39.5805 118.964 39.5405 118.92 39.5005 118.888L39.3445 118.588C39.2005 118.388 39.1285 118.288 39.1285 118.288L39.0565 118.132ZM44.5425 118.168L44.4945 118.672V118.708C44.4705 118.9 44.4585 119.04 44.4585 119.128C44.4025 119.496 44.4505 119.832 44.6025 120.136C44.6025 120.168 44.6585 120.236 44.7705 120.34C44.8025 120.348 44.8345 120.356 44.8665 120.364C44.9065 120.372 44.9385 120.384 44.9625 120.4C44.9865 120.408 45.0425 120.404 45.1305 120.388C45.2185 120.372 45.2745 120.356 45.2985 120.34C45.3305 120.324 45.3905 120.28 45.4785 120.208C45.5985 120.088 45.6985 120.016 45.7785 119.992C45.9545 119.832 46.1025 119.712 46.2225 119.632C46.3505 119.608 46.4345 119.604 46.4745 119.62C46.5145 119.628 46.5705 119.68 46.6425 119.776C46.7385 119.888 46.7425 120.048 46.6545 120.256C46.6145 120.424 46.5345 120.576 46.4145 120.712C46.2945 120.848 46.1945 120.94 46.1145 120.988L46.0425 121.084L45.8025 121.312C45.7545 121.312 45.7145 121.344 45.6825 121.408C45.6825 121.432 45.5865 121.48 45.3945 121.552C44.8825 121.48 44.5545 121.416 44.4105 121.36L44.1225 121.24C44.0665 121.224 43.9985 121.176 43.9185 121.096L43.6905 120.952C43.6745 120.912 43.6025 120.864 43.4745 120.808L43.1505 120.412L43.0305 120.196C43.0145 120.156 42.9945 120.012 42.9705 119.764C42.9785 119.74 42.9825 119.652 42.9825 119.5C43.0065 119.428 43.0185 119.344 43.0185 119.248C43.0425 119.216 43.0465 119.132 43.0305 118.996L43.0545 118.72C43.0545 118.592 43.1105 118.304 43.2225 117.856C43.2225 117.784 43.2385 117.692 43.2705 117.58C43.2385 117.516 43.2505 117.316 43.3065 116.98C43.3065 116.908 43.3145 116.816 43.3305 116.704C43.3305 116.272 43.3705 115.928 43.4505 115.672C43.4505 115.568 43.4745 115.456 43.5225 115.336C43.5785 115.208 43.6105 115.128 43.6185 115.096C43.6345 115.064 43.6425 115.024 43.6425 114.976C43.6505 114.968 43.6665 114.896 43.6905 114.76C43.7385 114.704 43.7705 114.596 43.7865 114.436C43.7945 114.444 43.7985 114.444 43.7985 114.436C43.7985 114.42 43.8185 114.336 43.8585 114.184C43.8585 114.08 43.9065 113.972 44.0025 113.86C44.0185 113.812 44.0905 113.76 44.2185 113.704H44.2305C44.2705 113.68 44.3545 113.668 44.4825 113.668C44.6185 113.66 44.7785 113.692 44.9625 113.764C45.0185 113.764 45.1305 113.828 45.2985 113.956C45.3865 114.076 45.3465 114.332 45.1785 114.724C45.1145 114.916 45.0785 115.02 45.0705 115.036C45.0705 115.124 44.9705 115.612 44.7705 116.5C44.7705 116.556 44.7625 116.6 44.7465 116.632C44.7145 116.712 44.6985 116.792 44.6985 116.872C44.6345 117.16 44.5825 117.592 44.5425 118.168ZM48.7942 117.148C48.7702 117.172 48.7502 117.328 48.7342 117.616C48.7182 117.904 48.7022 118.064 48.6862 118.096L48.6982 118.768C48.7382 119.008 48.7782 119.18 48.8182 119.284C48.8582 119.388 48.8822 119.452 48.8902 119.476C48.8982 119.5 48.9062 119.528 48.9142 119.56C48.9222 119.584 48.9622 119.636 49.0342 119.716C49.1062 119.796 49.1662 119.872 49.2142 119.944C49.2222 119.944 49.2542 119.968 49.3102 120.016C49.4462 120.12 49.5582 120.152 49.6462 120.112C49.6542 120.112 49.6982 120.092 49.7782 120.052C49.7782 120.028 49.8262 120.004 49.9222 119.98C49.9302 119.98 49.9542 119.948 49.9942 119.884C50.0102 119.884 50.0422 119.856 50.0902 119.8C50.0902 119.776 50.1142 119.744 50.1622 119.704C50.2102 119.656 50.2502 119.616 50.2822 119.584C50.2742 119.568 50.3142 119.492 50.4022 119.356C50.4342 119.356 50.5222 119.2 50.6662 118.888C50.8342 118.536 50.9182 118.352 50.9182 118.336C50.9182 118.312 50.9382 118.232 50.9782 118.096C51.0182 117.952 51.0422 117.852 51.0502 117.796C51.0662 117.732 51.0822 117.68 51.0982 117.64C51.1142 117.6 51.1222 117.508 51.1222 117.364C51.1382 117.356 51.1662 117.176 51.2062 116.824V116.416L51.1942 115.864C51.1782 115.816 51.1702 115.764 51.1702 115.708C51.1702 115.652 51.1622 115.608 51.1462 115.576C51.1382 115.544 51.1302 115.492 51.1222 115.42C51.0822 115.092 51.0142 114.88 50.9182 114.784C50.9182 114.752 50.8542 114.68 50.7262 114.568L50.6062 114.544C50.4782 114.528 50.2502 114.616 49.9222 114.808C49.9062 114.808 49.8382 114.856 49.7182 114.952C49.6062 115.048 49.5382 115.112 49.5142 115.144C49.4902 115.152 49.4462 115.188 49.3822 115.252C49.1582 115.46 48.9622 116.092 48.7942 117.148ZM50.4742 113.26C50.5622 113.26 50.6502 113.26 50.7382 113.26L51.1102 113.344C51.1982 113.36 51.2782 113.408 51.3502 113.488C51.8462 113.872 52.1102 114.152 52.1422 114.328C52.1822 114.424 52.2102 114.492 52.2262 114.532C52.2422 114.572 52.2582 114.612 52.2742 114.652V114.664C52.2742 114.68 52.2782 114.704 52.2862 114.736C52.3342 114.88 52.3782 115.116 52.4182 115.444C52.4822 115.756 52.4902 116.092 52.4422 116.452C52.4422 116.572 52.4342 116.664 52.4182 116.728C52.4262 116.816 52.4142 116.948 52.3822 117.124C52.4062 117.188 52.3822 117.288 52.3102 117.424C52.3102 117.52 52.2742 117.692 52.2022 117.94C52.2262 117.988 52.1582 118.216 51.9982 118.624C51.8382 119.032 51.6342 119.456 51.3862 119.896C51.2742 120.12 51.0942 120.372 50.8462 120.652C50.7982 120.724 50.6822 120.836 50.4982 120.988C50.2982 121.204 50.1142 121.34 49.9462 121.396C49.9222 121.404 49.8622 121.404 49.7662 121.396C49.6702 121.396 49.6102 121.384 49.5862 121.36C49.4822 121.36 49.4142 121.352 49.3822 121.336C49.3582 121.32 49.3422 121.312 49.3342 121.312C49.2942 121.296 49.2462 121.28 49.1902 121.264C49.1422 121.256 49.0902 121.24 49.0342 121.216C48.9782 121.192 48.9422 121.18 48.9262 121.18C48.9102 121.18 48.8942 121.176 48.8782 121.168C48.8702 121.16 48.8342 121.148 48.7702 121.132C48.7142 121.116 48.5582 121.044 48.3022 120.916C48.2942 120.916 48.2582 120.88 48.1942 120.808L48.0022 120.676C47.9462 120.676 47.8982 120.616 47.8582 120.496C47.8102 120.448 47.7742 120.392 47.7502 120.328C47.6622 120.328 47.5862 120.096 47.5222 119.632C47.4822 119.432 47.4502 119.196 47.4262 118.924C47.4102 118.892 47.4022 118.836 47.4022 118.756C47.3782 118.612 47.3662 118.476 47.3662 118.348C47.3502 118.284 47.3422 118.2 47.3422 118.096C47.3422 117.992 47.3382 117.936 47.3302 117.928C47.3222 117.92 47.3142 117.824 47.3062 117.64C47.3062 117.456 47.3102 117.36 47.3182 117.352C47.3262 117.336 47.3342 117.26 47.3422 117.124L47.3662 116.5V116.284L47.3902 115.804C47.3902 115.764 47.4022 115.684 47.4262 115.564C47.4422 115.548 47.4662 115.432 47.4982 115.216C47.5622 114.944 47.6062 114.784 47.6302 114.736C47.6622 114.68 47.6822 114.636 47.6902 114.604C47.7062 114.572 47.7262 114.54 47.7502 114.508C47.7742 114.476 47.8142 114.404 47.8702 114.292L48.0862 113.968C48.0862 113.952 48.1102 113.92 48.1582 113.872C48.2142 113.824 48.2582 113.796 48.2902 113.788C48.3062 113.74 48.3382 113.712 48.3862 113.704C48.4422 113.688 48.5262 113.644 48.6382 113.572C48.7262 113.54 48.7702 113.516 48.7702 113.5C48.9142 113.404 49.0822 113.356 49.2742 113.356L49.4542 113.368L49.8022 113.5C50.0902 113.388 50.2622 113.332 50.3182 113.332C50.3342 113.308 50.3862 113.284 50.4742 113.26ZM54.7735 120.94L54.5455 120.952C54.5295 120.936 54.4415 120.924 54.2815 120.916C54.2655 120.884 54.2055 120.848 54.1015 120.808C54.0535 120.808 53.9535 120.732 53.8015 120.58C53.6655 120.468 53.5935 120.404 53.5855 120.388C53.5775 120.356 53.5495 120.316 53.5015 120.268C53.4695 120.22 53.4335 120.108 53.3935 119.932C53.2655 119.54 53.1975 119.284 53.1895 119.164C53.1815 119.044 53.1895 118.876 53.2135 118.66C53.1815 118.62 53.1855 118.52 53.2255 118.36C53.2255 118.272 53.2375 118.072 53.2615 117.76V117.688L53.3095 117.148C53.3015 116.988 53.3255 116.824 53.3815 116.656C53.4375 116.488 53.4775 116.332 53.5015 116.188C53.5255 116.18 53.5495 116.076 53.5735 115.876C53.6935 115.5 53.7655 115.292 53.7895 115.252L53.9815 114.916C54.0055 114.892 54.0415 114.84 54.0895 114.76L54.4495 114.292C54.4975 114.236 54.6015 114.168 54.7615 114.088C54.8495 114 54.9535 113.932 55.0735 113.884C55.3775 113.756 55.6375 113.68 55.8535 113.656C55.9495 113.728 56.0815 113.704 56.2495 113.584C56.7295 113.624 57.0495 113.644 57.2095 113.644C57.3775 113.644 57.5415 113.672 57.7015 113.728C57.9415 113.776 58.0655 113.868 58.0735 114.004C58.0895 114.204 58.0615 114.356 57.9895 114.46C57.9175 114.564 57.8255 114.608 57.7135 114.592C57.3855 114.544 57.1175 114.528 56.9095 114.544C56.7015 114.56 56.5055 114.62 56.3215 114.724C56.3055 114.732 56.2695 114.748 56.2135 114.772C56.0855 114.828 55.9815 114.888 55.9015 114.952C55.6055 115.2 55.3295 115.668 55.0735 116.356L55.0375 116.56C55.0455 116.552 55.0455 116.556 55.0375 116.572C55.0375 116.58 55.0295 116.604 55.0135 116.644C55.0055 116.676 54.9975 116.704 54.9895 116.728C54.9895 116.752 54.9775 116.792 54.9535 116.848C54.8735 117.064 54.8015 117.368 54.7375 117.76C54.6815 118.144 54.6535 118.464 54.6535 118.72C54.6535 118.976 54.6975 119.18 54.7855 119.332L54.9775 119.548C55.0095 119.612 55.1055 119.688 55.2655 119.776C55.3375 119.864 55.4455 119.952 55.5895 120.04C55.7175 120.096 55.9335 120.036 56.2375 119.86C56.2695 119.836 56.3015 119.808 56.3335 119.776L56.6215 119.584C56.7975 119.4 56.9055 119.276 56.9455 119.212L57.0895 119.092L57.1375 118.72C57.1375 118.712 57.1455 118.688 57.1615 118.648C57.1935 118.528 57.2095 118.424 57.2095 118.336V118.168L57.1855 117.796C57.1935 117.684 57.1775 117.608 57.1375 117.568C57.0175 117.568 56.7935 117.68 56.4655 117.904C56.4415 117.92 56.3855 117.928 56.2975 117.928C56.2175 117.92 56.1535 117.904 56.1055 117.88C55.9695 117.8 55.9015 117.7 55.9015 117.58C55.9015 117.46 55.9135 117.364 55.9375 117.292C55.9615 117.22 55.9735 117.172 55.9735 117.148C55.9815 117.124 55.9975 117.1 56.0215 117.076C56.0535 117.044 56.0935 117.012 56.1415 116.98C56.1895 116.948 56.2455 116.9 56.3095 116.836C56.3815 116.764 56.5255 116.676 56.7415 116.572C56.9575 116.468 57.2015 116.416 57.4735 116.416C57.7455 116.416 57.9655 116.496 58.1335 116.656C58.3015 116.808 58.4455 117.096 58.5655 117.52C58.5815 117.616 58.5895 117.828 58.5895 118.156C58.5895 118.476 58.5135 119.076 58.3615 119.956C58.3215 120.34 58.2735 120.6 58.2175 120.736C58.1695 120.864 58.1375 120.996 58.1215 121.132C58.1055 121.276 58.0895 121.376 58.0735 121.432C58.0655 121.488 58.0575 121.524 58.0495 121.54C58.0495 121.564 58.0455 121.584 58.0375 121.6C58.0375 121.616 58.0255 121.66 58.0015 121.732C57.9775 121.812 57.9175 121.892 57.8215 121.972C57.7255 122.052 57.6375 122.096 57.5575 122.104C57.2935 122.056 57.1175 121.972 57.0295 121.852C56.9975 121.804 56.9535 121.716 56.8975 121.588C56.8415 121.46 56.8095 121.348 56.8015 121.252C56.8015 121.164 56.8015 121.104 56.8015 121.072C56.8095 121.04 56.8255 120.944 56.8495 120.784C56.8735 120.616 56.8895 120.488 56.8975 120.4L56.5735 120.796C56.5735 120.828 56.5015 120.884 56.3575 120.964C56.2935 121.028 56.1095 121.052 55.8055 121.036H55.6975C55.6895 121.1 55.5015 121.096 55.1335 121.024C55.0855 121.032 54.9655 121.004 54.7735 120.94ZM60.9119 117.82L60.8879 118.684C60.9039 118.956 60.9239 119.104 60.9479 119.128L60.9959 119.416C60.9959 119.472 61.0239 119.576 61.0799 119.728C61.0799 119.76 61.1879 119.86 61.4039 120.028C61.5079 120.028 61.7479 119.956 62.1239 119.812L62.6039 119.644C62.7959 119.524 62.9759 119.48 63.1439 119.512C63.3199 119.536 63.4199 119.676 63.4439 119.932C63.4519 120.052 63.4399 120.144 63.4079 120.208C63.3839 120.272 63.3159 120.348 63.2039 120.436C63.0999 120.524 63.0279 120.588 62.9879 120.628C62.9479 120.668 62.8839 120.708 62.7959 120.748C62.7159 120.788 62.6159 120.832 62.4959 120.88C62.3839 120.928 62.3119 120.96 62.2799 120.976C61.9439 121.112 61.6999 121.16 61.5479 121.12C61.4599 121.12 61.3599 121.096 61.2479 121.048C61.1359 121.008 61.0759 120.992 61.0679 121C61.0359 121.008 60.9719 120.996 60.8759 120.964C60.7879 120.932 60.6439 120.892 60.4439 120.844C60.4439 120.812 60.3879 120.776 60.2759 120.736L59.9639 120.46C59.9079 120.428 59.8519 120.328 59.7959 120.16C59.6359 119.904 59.5439 119.676 59.5199 119.476C59.4799 119.38 59.4639 119.256 59.4719 119.104C59.4399 119.064 59.4039 118.9 59.3639 118.612C59.3399 118.228 59.3519 117.932 59.3999 117.724C59.3999 117.588 59.4319 117.44 59.4959 117.28C59.5279 117.144 59.5519 117.012 59.5679 116.884C59.5919 116.836 59.6119 116.744 59.6279 116.608C59.5959 116.504 59.6599 116.24 59.8199 115.816C59.8199 115.768 59.8519 115.66 59.9159 115.492C59.9639 115.404 59.9959 115.288 60.0119 115.144L60.1079 114.928C60.1079 114.92 60.1759 114.684 60.3119 114.22C60.3839 114.076 60.4199 113.988 60.4199 113.956L60.7439 113.332L60.8879 113.152C60.9679 113.088 61.0559 113.044 61.1519 113.02C61.1999 112.98 61.3279 112.988 61.5359 113.044C61.6639 113.092 61.7479 113.14 61.7879 113.188C61.8439 113.22 61.9119 113.236 61.9919 113.236C62.0719 113.228 62.1999 113.224 62.3759 113.224C62.6479 113.176 62.9519 113.188 63.2879 113.26C63.3999 113.284 63.4999 113.356 63.5879 113.476C63.6839 113.58 63.7199 113.676 63.6959 113.764C63.6719 113.852 63.6319 113.92 63.5759 113.968C63.5279 114.008 63.4719 114.044 63.4079 114.076C63.2799 114.14 63.1879 114.184 63.1319 114.208C63.0679 114.224 62.9199 114.292 62.6879 114.412C62.4559 114.524 62.3039 114.596 62.2319 114.628C62.1199 114.676 62.0079 114.724 61.8959 114.772C61.7519 114.868 61.6679 114.964 61.6439 115.06C61.6359 115.076 61.6279 115.096 61.6199 115.12C61.6119 115.144 61.5999 115.176 61.5839 115.216C61.5759 115.256 61.5599 115.312 61.5359 115.384C61.5119 115.456 61.4799 115.556 61.4399 115.684C61.2479 116.292 61.1519 116.636 61.1519 116.716L61.3919 116.692C61.7519 116.588 61.9599 116.56 62.0159 116.608C62.0479 116.608 62.0919 116.6 62.1479 116.584C62.4999 116.496 62.7639 116.46 62.9399 116.476C62.9719 116.46 63.0119 116.48 63.0599 116.536C63.1159 116.592 63.1439 116.644 63.1439 116.692C63.1759 116.796 63.1839 116.892 63.1679 116.98C63.1599 117.06 63.0959 117.132 62.9759 117.196L62.8199 117.292L62.0399 117.616L61.7519 117.7C61.4879 117.82 61.2759 117.888 61.1159 117.904L60.9119 117.82ZM67.8153 121L67.6713 120.976C67.6313 120.976 67.5753 120.948 67.5033 120.892C67.4313 120.828 67.3873 120.812 67.3713 120.844C67.3633 120.868 67.3233 120.852 67.2513 120.796C67.0673 120.66 66.9113 120.476 66.7833 120.244C66.6633 120.012 66.6513 119.816 66.7473 119.656C66.7873 119.552 66.8713 119.416 66.9993 119.248C67.1273 119.072 67.2113 118.948 67.2513 118.876C67.2913 118.804 67.3633 118.708 67.4673 118.588C67.5713 118.46 67.6393 118.356 67.6713 118.276C67.7033 118.148 67.8113 118.024 67.9953 117.904C68.0433 117.808 68.0833 117.736 68.1153 117.688C68.1473 117.632 68.1793 117.572 68.2113 117.508C68.3073 117.324 68.3673 117.216 68.3913 117.184C68.4233 117.144 68.4513 117.104 68.4753 117.064C68.5153 117.008 68.5873 116.94 68.6913 116.86C68.7153 116.78 68.7513 116.692 68.7993 116.596C68.8553 116.492 68.8913 116.424 68.9073 116.392C69.1953 116.04 69.4033 115.652 69.5313 115.228C69.5633 115.052 69.5433 114.912 69.4713 114.808C69.3993 114.704 69.2673 114.692 69.0753 114.772C68.5233 115.028 68.0433 115.52 67.6353 116.248C67.5473 116.288 67.4673 116.272 67.3953 116.2C67.3313 116.176 67.2513 116.116 67.1553 116.02C67.0513 115.956 66.9833 115.876 66.9513 115.78C66.9193 115.684 66.9033 115.52 66.9033 115.288C66.9033 115.048 66.9353 114.868 66.9993 114.748C67.0633 114.628 67.1153 114.556 67.1553 114.532C67.2033 114.484 67.2273 114.412 67.2273 114.316C67.2753 114.22 67.3233 114.164 67.3713 114.148C67.4033 114.06 67.4113 114.004 67.3953 113.98L67.4673 113.884L67.6113 113.62C67.7073 113.476 67.8273 113.388 67.9713 113.356C68.0033 113.324 68.0313 113.3 68.0553 113.284C68.0793 113.26 68.1073 113.232 68.1393 113.2C68.1713 113.2 68.2193 113.184 68.2833 113.152C68.3473 113.152 68.4513 113.14 68.5953 113.116C68.6273 113.084 68.7033 113.072 68.8233 113.08C68.9433 113.08 69.0433 113.104 69.1233 113.152C69.2673 113.168 69.3593 113.18 69.3993 113.188C69.4473 113.196 69.4793 113.2 69.4953 113.2C69.5113 113.2 69.5553 113.244 69.6273 113.332L69.7473 113.428C69.7633 113.428 69.8593 113.524 70.0353 113.716C70.2193 113.9 70.3233 114.028 70.3473 114.1C70.3793 114.164 70.4113 114.208 70.4433 114.232C70.4833 114.256 70.5553 114.34 70.6593 114.484C70.7633 114.628 70.8313 114.736 70.8633 114.808C70.9593 114.992 70.9913 115.26 70.9593 115.612C70.9353 115.964 70.8353 116.3 70.6593 116.62C70.4833 116.94 70.1313 117.468 69.6033 118.204C69.4033 118.484 68.9993 118.956 68.3913 119.62C69.5833 119.62 70.1913 119.628 70.2153 119.644C70.2393 119.66 70.3713 119.768 70.6113 119.968C70.6513 120.016 70.7193 120.136 70.8153 120.328C70.9113 120.512 70.9633 120.644 70.9713 120.724C71.0113 120.828 71.0393 120.88 71.0553 120.88C71.0793 120.912 71.0873 120.964 71.0793 121.036C71.0713 121.116 71.0353 121.156 70.9713 121.156C70.9153 121.092 70.7753 121.048 70.5513 121.024C70.3353 121.008 70.0033 121 69.5553 121C69.1073 121 68.7873 121.008 68.5953 121.024C68.0753 121.024 67.8153 121.016 67.8153 121ZM74.8475 117.844L74.8715 117.46C74.9035 117.18 74.8835 116.78 74.8115 116.26C74.8035 115.98 74.7715 115.768 74.7155 115.624C74.6595 115.472 74.5435 115.26 74.3675 114.988C74.2235 114.86 74.1515 114.776 74.1515 114.736C74.0635 114.648 73.9595 114.712 73.8395 114.928C73.8075 115.048 73.6515 115.392 73.3715 115.96C73.3955 116.024 73.3715 116.092 73.2995 116.164C73.2835 116.188 73.2755 116.236 73.2755 116.308C73.2995 116.356 73.3075 116.424 73.2995 116.512C73.2755 116.592 73.2515 116.928 73.2275 117.52C73.2275 117.856 73.2555 118.096 73.3115 118.24C73.3115 118.512 73.3275 118.728 73.3595 118.888C73.3515 119.112 73.3675 119.288 73.4075 119.416C73.5195 119.68 73.6395 119.812 73.7675 119.812C73.8955 119.812 74.0355 119.708 74.1875 119.5C74.3475 119.292 74.4715 119.036 74.5595 118.732C74.5515 118.668 74.5635 118.636 74.5955 118.636C74.5955 118.58 74.6155 118.488 74.6555 118.36C74.7035 118.224 74.7275 118.132 74.7275 118.084L74.8475 117.844ZM72.0515 115.312L72.0875 115.06C72.0875 115.004 72.1275 114.928 72.2075 114.832C72.2555 114.704 72.2755 114.62 72.2675 114.58C72.2675 114.54 72.3075 114.436 72.3875 114.268C72.4755 114.092 72.5555 113.972 72.6275 113.908C72.6995 113.836 72.7675 113.752 72.8315 113.656C72.8315 113.616 72.8555 113.572 72.9035 113.524C72.9595 113.476 73.0155 113.448 73.0715 113.44C73.2555 113.376 73.3955 113.36 73.4915 113.392C73.7395 113.488 73.8875 113.508 73.9355 113.452C73.9515 113.428 74.0315 113.404 74.1755 113.38C74.3275 113.348 74.4315 113.336 74.4875 113.344C74.5515 113.344 74.6195 113.372 74.6915 113.428C74.9715 113.564 75.2475 113.828 75.5195 114.22C75.7995 114.612 75.9955 115.024 76.1075 115.456C76.2835 116 76.3435 116.536 76.2875 117.064C76.2315 117.664 76.1035 118.268 75.9035 118.876C75.7035 119.484 75.5795 119.832 75.5315 119.92C75.4915 120.008 75.4555 120.076 75.4235 120.124C75.3995 120.164 75.3835 120.212 75.3755 120.268C75.3675 120.316 75.3075 120.404 75.1955 120.532C75.0835 120.66 74.9995 120.732 74.9435 120.748C74.7195 120.924 74.5195 121.016 74.3435 121.024C74.3035 121.032 74.2355 121.032 74.1395 121.024C74.0515 121.024 73.9715 121.024 73.8995 121.024C73.8275 121.024 73.7715 121.032 73.7315 121.048C73.5875 121.032 73.4715 121.024 73.3835 121.024C73.3035 121.032 73.1875 121 73.0355 120.928C72.7955 120.776 72.6035 120.588 72.4595 120.364C72.4275 120.228 72.3835 120.132 72.3275 120.076L72.2075 119.812C72.1195 119.756 72.0675 119.584 72.0515 119.296C71.8035 118.576 71.7435 117.432 71.8715 115.864C71.8715 115.76 71.8995 115.708 71.9555 115.708C71.9795 115.668 71.9875 115.62 71.9795 115.564C71.9795 115.508 72.0035 115.424 72.0515 115.312ZM78.1747 121L78.0307 120.976C77.9907 120.976 77.9347 120.948 77.8627 120.892C77.7907 120.828 77.7467 120.812 77.7307 120.844C77.7227 120.868 77.6827 120.852 77.6107 120.796C77.4267 120.66 77.2707 120.476 77.1427 120.244C77.0227 120.012 77.0107 119.816 77.1067 119.656C77.1467 119.552 77.2307 119.416 77.3587 119.248C77.4867 119.072 77.5707 118.948 77.6107 118.876C77.6507 118.804 77.7227 118.708 77.8267 118.588C77.9307 118.46 77.9987 118.356 78.0307 118.276C78.0627 118.148 78.1707 118.024 78.3547 117.904C78.4027 117.808 78.4427 117.736 78.4747 117.688C78.5067 117.632 78.5387 117.572 78.5707 117.508C78.6667 117.324 78.7267 117.216 78.7507 117.184C78.7827 117.144 78.8107 117.104 78.8347 117.064C78.8747 117.008 78.9467 116.94 79.0507 116.86C79.0747 116.78 79.1107 116.692 79.1587 116.596C79.2147 116.492 79.2507 116.424 79.2667 116.392C79.5547 116.04 79.7627 115.652 79.8907 115.228C79.9227 115.052 79.9027 114.912 79.8307 114.808C79.7587 114.704 79.6267 114.692 79.4347 114.772C78.8827 115.028 78.4027 115.52 77.9947 116.248C77.9067 116.288 77.8267 116.272 77.7547 116.2C77.6907 116.176 77.6107 116.116 77.5147 116.02C77.4107 115.956 77.3427 115.876 77.3107 115.78C77.2787 115.684 77.2627 115.52 77.2627 115.288C77.2627 115.048 77.2947 114.868 77.3587 114.748C77.4227 114.628 77.4747 114.556 77.5147 114.532C77.5627 114.484 77.5867 114.412 77.5867 114.316C77.6347 114.22 77.6827 114.164 77.7307 114.148C77.7627 114.06 77.7707 114.004 77.7547 113.98L77.8267 113.884L77.9707 113.62C78.0667 113.476 78.1867 113.388 78.3307 113.356C78.3627 113.324 78.3907 113.3 78.4147 113.284C78.4387 113.26 78.4667 113.232 78.4987 113.2C78.5307 113.2 78.5787 113.184 78.6427 113.152C78.7067 113.152 78.8107 113.14 78.9547 113.116C78.9867 113.084 79.0627 113.072 79.1827 113.08C79.3027 113.08 79.4027 113.104 79.4827 113.152C79.6267 113.168 79.7187 113.18 79.7587 113.188C79.8067 113.196 79.8387 113.2 79.8547 113.2C79.8707 113.2 79.9147 113.244 79.9867 113.332L80.1067 113.428C80.1227 113.428 80.2187 113.524 80.3947 113.716C80.5787 113.9 80.6827 114.028 80.7067 114.1C80.7387 114.164 80.7707 114.208 80.8027 114.232C80.8427 114.256 80.9147 114.34 81.0187 114.484C81.1227 114.628 81.1907 114.736 81.2227 114.808C81.3187 114.992 81.3507 115.26 81.3187 115.612C81.2947 115.964 81.1947 116.3 81.0187 116.62C80.8427 116.94 80.4907 117.468 79.9627 118.204C79.7627 118.484 79.3587 118.956 78.7507 119.62C79.9427 119.62 80.5507 119.628 80.5747 119.644C80.5987 119.66 80.7307 119.768 80.9707 119.968C81.0107 120.016 81.0787 120.136 81.1747 120.328C81.2707 120.512 81.3227 120.644 81.3307 120.724C81.3707 120.828 81.3987 120.88 81.4147 120.88C81.4387 120.912 81.4467 120.964 81.4387 121.036C81.4307 121.116 81.3947 121.156 81.3307 121.156C81.2747 121.092 81.1347 121.048 80.9107 121.024C80.6947 121.008 80.3627 121 79.9147 121C79.4667 121 79.1467 121.008 78.9547 121.024C78.4347 121.024 78.1747 121.016 78.1747 121ZM82.3748 119.704L82.8188 119.572C82.8748 119.572 82.9308 119.544 82.9868 119.488C83.0748 119.432 83.1628 119.408 83.2508 119.416L83.7788 119.152L83.9468 119.092C84.2108 118.956 84.3588 118.884 84.3908 118.876C84.4868 118.804 84.5588 118.764 84.6068 118.756C84.6468 118.748 84.7108 118.712 84.7988 118.648C84.8788 118.568 84.9628 118.512 85.0508 118.48C85.0828 118.448 85.1548 118.392 85.2668 118.312C85.5228 118.056 85.5988 117.848 85.4948 117.688C85.4548 117.632 85.3868 117.588 85.2908 117.556C85.0508 117.54 84.8428 117.532 84.6668 117.532C84.4908 117.532 84.2228 117.572 83.8628 117.652L83.1188 117.748C83.0468 117.804 82.9348 117.748 82.7828 117.58C82.7348 117.58 82.6148 117.508 82.4228 117.364C82.3588 117.284 82.3028 117.224 82.2548 117.184C82.1428 117.12 82.0668 117.04 82.0268 116.944C82.0188 116.896 82.0468 116.7 82.1108 116.356C82.1828 116.012 82.2268 115.816 82.2428 115.768C82.2588 115.72 82.2708 115.664 82.2788 115.6L82.3988 115.276C82.6228 114.78 82.7348 114.476 82.7348 114.364L82.6868 114.22C82.5908 114.076 82.5428 113.94 82.5428 113.812C82.5428 113.676 82.5508 113.6 82.5668 113.584C82.5828 113.568 82.6348 113.568 82.7228 113.584C82.7388 113.576 82.7908 113.544 82.8788 113.488C82.9508 113.328 83.0428 113.292 83.1548 113.38C83.1868 113.428 83.2308 113.464 83.2868 113.488C83.3508 113.504 83.4148 113.492 83.4788 113.452C83.5428 113.412 83.6308 113.428 83.7428 113.5C83.7828 113.492 83.8668 113.492 83.9948 113.5C84.0348 113.524 84.0788 113.52 84.1268 113.488C84.1828 113.432 84.2828 113.4 84.4268 113.392C84.5788 113.384 84.6908 113.368 84.7628 113.344C84.8348 113.312 84.9468 113.308 85.0988 113.332C85.1948 113.3 85.2908 113.284 85.3868 113.284C85.4028 113.3 85.4548 113.292 85.5428 113.26H85.5548C85.7708 113.244 85.9508 113.28 86.0948 113.368C86.1508 113.384 86.1948 113.416 86.2268 113.464C86.2588 113.536 86.3348 113.6 86.4548 113.656C86.4388 113.696 86.4748 113.78 86.5628 113.908C86.6508 114.028 86.7068 114.156 86.7308 114.292C86.7548 114.42 86.7428 114.504 86.6948 114.544C86.6548 114.584 86.6028 114.62 86.5388 114.652C86.4748 114.676 86.3788 114.676 86.2508 114.652C86.1228 114.628 85.9588 114.616 85.7588 114.616C85.4628 114.64 85.0708 114.688 84.5828 114.76C84.3988 114.808 84.1708 114.844 83.8988 114.868C83.8908 114.876 83.8708 114.94 83.8388 115.06C83.8148 115.18 83.7948 115.252 83.7788 115.276C83.7148 115.644 83.6548 115.904 83.5988 116.056C83.5428 116.2 83.5148 116.284 83.5148 116.308C84.0188 116.236 84.2828 116.204 84.3068 116.212H84.7748C85.1508 116.228 85.4188 116.296 85.5788 116.416L85.7108 116.512C85.8708 116.608 86.0028 116.712 86.1068 116.824L86.7908 117.7C86.9108 117.892 86.9828 118.036 87.0068 118.132C87.0948 118.244 87.1268 118.372 87.1028 118.516C87.0708 118.516 87.0468 118.528 87.0308 118.552C87.0228 118.568 87.0148 118.584 87.0068 118.6C86.9748 118.64 86.9548 118.676 86.9468 118.708L86.6228 119.104L86.4428 119.296C86.4348 119.336 86.2308 119.492 85.8308 119.764C85.4388 120.036 85.1508 120.212 84.9668 120.292C84.3988 120.556 83.9948 120.732 83.7548 120.82C83.5228 120.9 83.2268 120.96 82.8668 121C82.8028 121.048 82.6748 121.052 82.4828 121.012C82.2908 120.98 82.0908 120.84 81.8828 120.592C81.7868 120.488 81.7308 120.424 81.7148 120.4C81.7068 120.368 81.7268 120.32 81.7748 120.256C81.7428 120.096 81.7068 119.984 81.6668 119.92C81.6828 119.888 81.7148 119.852 81.7628 119.812C81.8348 119.78 81.9388 119.752 82.0748 119.728C82.1628 119.752 82.2628 119.744 82.3748 119.704Z" fill="black"/>
</svg>
